# xmcd
#
# Track frame offsets:
#	187
#	16877
#	31057
#	44992
#	58162
#	69350
#	80872
#	98695
#	115312
#	133607
#	147487
#	161165
#	171762
#	189402
#	204110
#	222027
#	232917
#	249890
#
# Disc length: 3521 seconds
# Revision: 0
# Processed by: cddbd v1.5.2PL0 Copyright (c) Steve Scherf et al.
# Submitted via: dBpowerAMP V12.0
#
DISCID=f80dbf12
DTITLE=Various Artist - God Bless The U.S.A. (3 of 4)
DYEAR=1992
DGENRE=Country
TTITLE0=Ronnie Milsap - Happy, Happy Birthday Baby
TTITLE1=Barbara Mandrell - I'm A Believer
TTITLE2=Jim Ed Brown and Helen Cornelius - You Don't Bring Me Flowers
TTITLE3=Johnny Rodriguez - Love Me With All Your Heart
TTITLE4=The Judds - Don't Be Cruel
TTITLE5=Elvis Presley - Unchained Melody
TTITLE6=Juice Newton - Angel Of The Morning
TTITLE7=Freddy Fender - Secret Love
TTITLE8=Juice Newton - Break It To Me Gently
TTITLE9=James Galway and Sylvia - The Wayward Wind
TTITLE10=Willie Nelson - Fire And Rain
TTITLE11=Jacky Ward and Reba McEntire - I'd Really Love To See You Tonight
TTITLE12=Elvis Presley - My Way
TTITLE13=Dolly Parton - Sweet Summer Lovin'
TTITLE14=Lee Greenwood - The Wind Beneath My Wings
TTITLE15=Crystal Gayle - Ready For The Times To Get Better
TTITLE16=Roger Miller - River In The Rain
TTITLE17=Jim Stafford - My Girl Bill
EXTD=
EXTT0=
EXTT1=
EXTT2=
EXTT3=
EXTT4=
EXTT5=
EXTT6=
EXTT7=
EXTT8=
EXTT9=
EXTT10=
EXTT11=
EXTT12=
EXTT13=
EXTT14=
EXTT15=
EXTT16=
EXTT17=
PLAYORDER=
